<svg width="41" height="40" viewBox="0 0 41 40" fill="none" xmlns="http://www.w3.org/2000/svg">
<path d="M4.88927 18.7304L4.88927 18.7304L4.88832 18.7332C4.09568 21.0767 3.69559 23.3453 3.69559 25.5364V31.9417C3.69559 32.7702 4.36716 33.4417 5.19559 33.4417H13.3748C14.2033 33.4417 14.8748 32.7702 14.8748 31.9417L14.8748 25.4638L14.8748 25.4596C14.8517 22.7093 15.2902 20.2093 16.1824 17.9532C16.9933 15.9337 17.9722 13.9865 19.1192 12.1114C19.5405 11.4227 19.359 10.5099 18.6742 10.0536L14.1764 7.05642L14.1764 7.05642C13.6279 6.69096 12.8895 6.71948 12.3818 7.17184C10.8495 8.53712 9.45534 10.1628 8.19789 12.0452L8.1972 12.0463C6.80717 14.1385 5.70433 16.3668 4.88927 18.7304ZM22.809 18.7304L22.808 18.7332C22.0154 21.0767 21.6153 23.3453 21.6153 25.5364V31.9417C21.6153 32.7702 22.2869 33.4417 23.1153 33.4417H31.2945C32.123 33.4417 32.7945 32.7702 32.7945 31.9417L32.7946 25.4638L32.7945 25.4596C32.7714 22.7093 33.2099 20.2093 34.1021 17.9532C34.9131 15.9337 35.8919 13.9865 37.0389 12.1114C37.4602 11.4227 37.2787 10.5099 36.5939 10.0536L32.0961 7.05642C31.5477 6.69096 30.8092 6.71948 30.3015 7.17184L30.6336 7.54459L30.3015 7.17184C28.7692 8.53712 27.3751 10.1628 26.1176 12.0452L26.1169 12.0463C24.7269 14.1385 23.624 16.3668 22.809 18.7304Z" fill="#FFE566" stroke="#FFE566"/>
</svg>
